<svg width="425" height="362" viewBox="0 0 425 362" fill="none" xmlns="http://www.w3.org/2000/svg">
  <path
    d="M27.5203 249.987L25.2948 361.258C50.87 356.615 71.4703 332.471 71.9891 306.531C72.5078 280.59 52.89 255.644 27.5203 249.987Z"
    fill="#A08CFF" />
  <path
    d="M359.744 22.5645C361.903 35.7612 355.667 49.9545 344.478 57.3085C333.291 64.6625 317.357 65.7836 306.064 58.5909C296.387 66.4288 284.131 71.0408 271.677 71.5296C259.224 72.0185 245.631 68.1165 235.368 61.0612C232.926 70.983 226.857 79.9739 218.562 85.9589C210.265 91.9429 201.259 95.1161 191.054 94.3166C180.968 128.242 157.733 158.088 127.29 176.224C96.8469 194.361 59.4987 200.606 24.7949 193.364V12.9742L359.744 22.5645Z"
    fill="#A08CFF" />
  <path
    d="M225.96 175.779C225.911 175.472 225.852 175.168 225.787 174.864C224.267 174.38 222.746 173.896 221.225 173.412C222.49 173.022 223.755 172.632 225.019 172.24C224.48 170.804 223.763 169.433 222.855 168.182C222.693 167.957 222.514 167.743 222.34 167.527C220.682 167.768 219.026 168.011 217.369 168.252C218.548 167.486 219.728 166.72 220.908 165.955C216.694 161.871 210.419 159.842 204.55 160.873C204.215 166.723 206.284 172.786 209.69 177.591C210.483 176.319 211.276 175.045 212.068 173.772C211.95 175.883 211.833 177.995 211.716 180.107C212.385 180.839 213.092 181.526 213.835 182.168C218.916 186.558 227.007 182.348 225.96 175.779Z"
    fill="#FFB13C" />
  <path d="M199.261 158.716C207.171 161.49 213.92 167.288 217.762 174.608" stroke="#2B2C34" stroke-width="1.33333"
    stroke-miterlimit="10" stroke-linecap="round" stroke-linejoin="round" />
  <path
    d="M77.3443 241.902C77.3932 242.209 77.452 242.513 77.5169 242.817C79.0371 243.301 80.5574 243.785 82.0787 244.269C80.8138 244.659 79.5489 245.049 78.285 245.441C78.8237 246.877 79.5409 248.248 80.4487 249.499C80.6113 249.724 80.7888 249.938 80.9634 250.154C82.6213 249.913 84.2783 249.671 85.9352 249.429C84.7561 250.195 83.576 250.961 82.3959 251.726C86.6095 255.809 92.8851 257.839 98.7537 256.808C99.0889 250.958 97.02 244.895 93.6133 240.09C92.8203 241.363 92.0282 242.636 91.2362 243.909C91.3539 241.797 91.4706 239.686 91.5883 237.574C90.9189 236.842 90.2117 236.155 89.4685 235.513C84.388 231.123 76.2969 235.333 77.3443 241.902Z"
    fill="#FF7AD7" />
  <path d="M104.042 258.965C96.1329 256.191 89.3835 250.393 85.5419 243.073" stroke="#2B2C34" stroke-width="1.33333"
    stroke-miterlimit="10" stroke-linecap="round" stroke-linejoin="round" />
  <path
    d="M314.217 87.1856C313.987 86.9756 313.752 86.7734 313.512 86.5753C312.019 87.1389 310.527 87.7024 309.033 88.266C309.782 87.1757 310.53 86.0854 311.278 84.9952C309.961 84.2026 308.547 83.5734 307.056 83.1562C306.789 83.0805 306.517 83.0227 306.245 82.961C305.096 84.1777 303.948 85.3954 302.8 86.6121C303.248 85.2809 303.695 83.9487 304.144 82.6175C298.301 82.0291 292.12 84.3281 288.162 88.7747C291.539 93.5679 296.934 97.0368 302.593 98.6916C302.423 97.2021 302.251 95.7126 302.079 94.224C303.301 95.9515 304.524 97.68 305.746 99.4075C306.726 99.5658 307.708 99.6664 308.689 99.7092C315.403 100.001 319.126 91.6851 314.217 87.1856Z"
    fill="#6246EA" />
  <path d="M282.675 90.3629C290.6 87.6338 299.497 87.9942 307.063 91.3496" stroke="#2B2C34" stroke-width="1.33333"
    stroke-miterlimit="10" stroke-linecap="round" stroke-linejoin="round" />
  <path
    d="M153.666 208.336C153.666 207.51 152.996 206.842 152.17 206.842C151.344 206.842 150.674 207.51 150.674 208.336C150.674 209.16 151.344 209.829 152.17 209.829C152.996 209.829 153.666 209.16 153.666 208.336Z"
    fill="#E45858" />
  <path
    d="M105.539 172.883C105.539 172.059 104.868 171.39 104.042 171.39C103.216 171.39 102.546 172.059 102.546 172.883C102.546 173.708 103.216 174.377 104.042 174.377C104.868 174.377 105.539 173.708 105.539 172.883Z"
    fill="#6246EA" />
  <path
    d="M96.2886 301.106C96.2886 300.281 95.6183 299.612 94.7923 299.612C93.9663 299.612 93.296 300.281 93.296 301.106C93.296 301.931 93.9663 302.599 94.7923 302.599C95.6183 302.599 96.2886 301.931 96.2886 301.106Z"
    fill="#2B2C34" />
  <path
    d="M238.118 124.873C238.118 124.048 237.448 123.379 236.622 123.379C235.796 123.379 235.125 124.048 235.125 124.873C235.125 125.697 235.796 126.366 236.622 126.366C237.448 126.366 238.118 125.697 238.118 124.873Z"
    fill="#6246EA" />
  <path
    d="M246.17 78.1281C246.17 77.3037 245.5 76.6346 244.674 76.6346C243.848 76.6346 243.177 77.3037 243.177 78.1281C243.177 78.9525 243.848 79.6216 244.674 79.6216C245.5 79.6216 246.17 78.9525 246.17 78.1281Z"
    stroke="#2B2C34" stroke-width="1.33333" stroke-miterlimit="10" stroke-linecap="round" stroke-linejoin="round" />
  <path
    d="M390.131 53.6451C390.131 52.8207 389.46 52.1516 388.634 52.1516C387.808 52.1516 387.138 52.8207 387.138 53.6451C387.138 54.4695 387.808 55.1386 388.634 55.1386C389.46 55.1386 390.131 54.4695 390.131 53.6451Z"
    fill="#6246EA" />
  <path
    d="M402.365 68.8607C402.365 68.0363 401.694 67.3672 400.869 67.3672C400.043 67.3672 399.372 68.0363 399.372 68.8607C399.372 69.6852 400.043 70.3542 400.869 70.3542C401.694 70.3542 402.365 69.6852 402.365 68.8607Z"
    stroke="#2B2C34" stroke-width="1.33333" stroke-miterlimit="10" stroke-linecap="round" stroke-linejoin="round" />
  <path
    d="M270.079 48.4793C270.079 47.6549 269.409 46.9858 268.583 46.9858C267.757 46.9858 267.087 47.6549 267.087 48.4793C267.087 49.3037 267.757 49.9728 268.583 49.9728C269.409 49.9728 270.079 49.3037 270.079 48.4793Z"
    fill="#E45858" />
  <path
    d="M219.258 48.4114C219.258 47.587 218.588 46.9179 217.762 46.9179C216.936 46.9179 216.265 47.587 216.265 48.4114C216.265 49.2358 216.936 49.9049 217.762 49.9049C218.588 49.9049 219.258 49.2358 219.258 48.4114Z"
    fill="#6246EA" />
  <path
    d="M56.5214 317.594C56.5214 316.77 55.851 316.1 55.0251 316.1C54.1991 316.1 53.5287 316.77 53.5287 317.594C53.5287 318.418 54.1991 319.087 55.0251 319.087C55.851 319.087 56.5214 318.418 56.5214 317.594Z"
    fill="#6246EA" />
  <path d="M124.052 199.375L118.869 208.336H129.235L124.052 199.375Z" stroke="#2B2C34" stroke-width="1.33333"
    stroke-miterlimit="10" stroke-linecap="round" stroke-linejoin="round" />
  <path d="M414.555 53.2629L416.546 63.4178L424.362 56.6183L414.555 53.2629Z" fill="#E45858" />
  <path d="M249.817 122.683L260.09 124.075L256.161 114.499L249.817 122.683Z" fill="#2B2C34" />
  <path
    d="M84.1609 198.37C85.0647 204.718 85.9675 211.066 86.8713 217.414C92.4246 223.033 98.2204 228.427 104.254 233.566C100.666 216.099 95.7265 198.916 89.5387 182.192C86.0333 179.586 82.5289 176.98 79.0235 174.374C81.672 174.736 84.3195 175.099 86.967 175.461C83.6202 166.947 79.9493 158.56 75.9601 150.326C70.3439 146.49 64.7277 142.656 59.1115 138.82C62.956 139.148 66.8016 139.477 70.6471 139.805C57.4027 114.612 41.1685 90.9865 22.2929 69.6662L14.3923 80.5409C23.4022 129.4 46.9703 174.514 80.6116 210.867C81.7947 206.7 82.9778 202.536 84.1609 198.37Z"
    fill="#6246EA" />
  <path d="M33.1811 102.69C47.9608 129.67 62.7405 156.652 77.5201 183.633" stroke="#2B2C34" stroke-width="1.33333"
    stroke-miterlimit="10" stroke-linecap="round" stroke-linejoin="round" />
  <path
    d="M146.104 173.321C147.384 178.875 148.665 184.43 149.945 189.984C163.146 196.257 176.818 201.542 190.848 205.7C182.328 188.533 172.483 172.037 161.496 156.321C154.235 154.416 146.975 152.512 139.714 150.607C145.151 149.97 150.587 149.331 156.023 148.693C146.618 135.899 136.442 123.661 125.579 112.052C118.159 111.711 110.739 111.37 103.32 111.029C108.512 109.042 113.703 107.055 118.895 105.068C89.0126 74.6084 54.3428 48.7727 16.5936 28.9848L11.5829 52.9725C38.8549 109.85 85.5641 157.014 141.653 185.898C143.137 181.706 144.62 177.513 146.104 173.321Z"
    fill="#E45858" />
  <path d="M30.1975 54.5409C65.7162 89.5257 101.235 124.511 136.754 159.496" stroke="#2B2C34" stroke-width="1.33333"
    stroke-miterlimit="10" stroke-linecap="round" stroke-linejoin="round" />
  <path
    d="M139.021 101.228C141.153 106.55 143.283 111.872 145.415 117.195C156.597 121.462 168.039 125.042 179.663 127.885C179.401 124.003 179.137 120.123 178.874 116.243C180.736 120.5 182.599 124.756 184.46 129.013C193.511 131.06 202.662 132.672 211.878 133.808C204.388 119.141 194.258 105.945 182.584 94.0865C176.61 94.6312 170.635 95.1748 164.661 95.7194C168.704 93.287 172.747 90.8536 176.791 88.4212C164.987 77.3314 151.884 67.4922 138.413 58.8448C108.824 39.8474 76.1325 26.2694 43.5695 12.9742L27.0411 33.3994C56.6483 68.7089 95.0759 96.4393 137.661 114.101C138.114 109.81 138.568 105.519 139.021 101.228Z"
    fill="#FFD94B" />
  <path d="M51.4138 34.6026C88.3809 55.6581 125.349 76.7145 162.316 97.77" stroke="#2B2C34" stroke-width="1.33333"
    stroke-miterlimit="10" stroke-linecap="round" stroke-linejoin="round" />
  <path
    d="M172.411 36.6139C175.196 34.5111 177.981 32.4072 180.766 30.3044C150.163 9.90804 113.386 -1.13695 76.3157 0.0927048L84.0776 30.8609C105.91 44.5952 129.839 54.9631 154.758 61.659C153.705 56.832 152.651 52.005 151.598 47.178C154.606 52.5058 157.615 57.8347 160.624 63.1625C167.627 64.8721 174.701 66.2939 181.821 67.418C180.98 63.4134 180.138 59.4078 179.296 55.4032C183.287 59.8479 187.277 64.2916 191.268 68.7363C202.008 70.0306 212.828 70.6539 223.649 70.5802C212.693 56.0604 199.48 43.4353 184.723 33.0235C180.619 34.2203 176.514 35.4171 172.411 36.6139Z"
    fill="#FF7AD7" />
  <path d="M95.0109 11.4805C128.484 26.3489 161.956 41.2172 195.428 56.0856" stroke="#2B2C34" stroke-width="1.33333"
    stroke-miterlimit="10" stroke-linecap="round" stroke-linejoin="round" />
  <path
    d="M54.9719 277.637C57.0289 277.555 59.0868 277.472 61.1448 277.389C52.495 248.949 37.9099 222.301 18.4806 199.771L0 202.075C10.3416 230.882 26.1088 257.722 46.1396 280.884C46.9846 278.358 47.8285 275.833 48.6734 273.308C49.4984 277.707 50.3243 282.106 51.1493 286.505C56.2288 292.032 61.5567 297.332 67.1211 302.374C65.8013 294.844 64.0606 287.392 61.9318 280.051C59.6115 279.246 57.2922 278.442 54.9719 277.637Z"
    fill="#FFB13C" />
  <path d="M28.0579 231.781C35.7609 245.349 43.465 258.916 51.1681 272.484" stroke="#2B2C34" stroke-width="1.33333"
    stroke-miterlimit="10" stroke-linecap="round" stroke-linejoin="round" />
  <path
    d="M53.5907 232.569C53.6884 234.974 53.7862 237.379 53.8839 239.784C58.0118 244.918 62.4449 249.82 67.2002 254.441C66.3673 245.449 64.3512 236.591 61.2917 228.102C58.9455 226.642 56.5993 225.181 54.253 223.722C56.0805 223.834 57.907 223.947 59.7346 224.058C51.6494 204.113 37.7635 186.476 19.9393 174.345C26.8284 196.547 37.0473 217.732 51.027 236.129C51.8809 234.942 52.7358 233.755 53.5907 232.569Z"
    fill="#FFD94B" />
  <path d="M33.8804 191.385C39.6971 200.583 45.5138 209.781 51.3305 218.979" stroke="#2B2C34" stroke-width="1.33333"
    stroke-miterlimit="10" stroke-linecap="round" stroke-linejoin="round" />
  <path
    d="M357.243 56.3879C358.837 55.0875 360.432 53.7862 362.026 52.4848C337.981 34.9521 310.273 22.4156 281.174 16.0741L267.797 29.0079C293.415 45.8168 322.183 57.7997 352.142 64.2835C351.296 61.7585 350.449 59.2335 349.603 56.7095C352.912 59.7283 356.222 62.7482 359.532 65.7671C366.921 67.1341 374.37 68.1716 381.853 68.8606C376.263 63.6373 370.382 58.7267 364.258 54.1386C361.92 54.8884 359.582 55.6381 357.243 56.3879Z"
    fill="#FFB13C" />
  <path d="M308.13 35.7694C319.885 41.6658 331.64 47.5631 343.396 53.4595" stroke="#2B2C34" stroke-width="1.33333"
    stroke-miterlimit="10" stroke-linecap="round" stroke-linejoin="round" />
</svg>