{
  "accessors": [
    {
      "bufferView": 2,
      "componentType": 5126,
      "count": 4,
      "max": [
        167.02890014648438,
        167.02890014648438,
        0.0
      ],
      "min": [
        -167.02890014648438,
        -167.02890014648438,
        0.0
      ],
      "type": "VEC3"
    },
    {
      "bufferView": 2,
      "byteOffset": 48,
      "componentType": 5126,
      "count": 4,
      "max": [
        0.0,
        0.0,
        1.0
      ],
      "min": [
        0.0,
        0.0,
        1.0
      ],
      "type": "VEC3"
    },
    {
      "bufferView": 1,
      "componentType": 5126,
      "count": 4,
      "max": [
        1.0,
        1.0
      ],
      "min": [
        2.9802322387695313e-08,
        2.9802322387695313e-08
      ],
      "type": "VEC2"
    },
    {
      "bufferView": 0,
      "componentType": 5125,
      "count": 6,
      "type": "SCALAR"
    },
    {
      "bufferView": 2,
      "byteOffset": 96,
      "componentType": 5126,
      "count": 6901,
      "max": [
        89.18019104003906,
        40.07804489135742,
        79.04800415039063
      ],
      "min": [
        -89.18019104003906,
        -47.66885757446289,
        19.792739868164063
      ],
      "type": "VEC3"
    },
    {
      "bufferView": 2,
      "byteOffset": 82908,
      "componentType": 5126,
      "count": 6901,
      "max": [
        1.0,
        0.9999972581863403,
        1.0
      ],
      "min": [
        -1.0,
        -0.999999463558197,
        -1.0
      ],
      "type": "VEC3"
    },
    {
      "bufferView": 1,
      "byteOffset": 32,
      "componentType": 5126,
      "count": 6901,
      "max": [
        0.9923286437988281,
        0.9902822971343994
      ],
      "min": [
        0.0005000000237487257,
        0.0005000000237487257
      ],
      "type": "VEC2"
    },
    {
      "bufferView": 0,
      "byteOffset": 24,
      "componentType": 5125,
      "count": 35952,
      "type": "SCALAR"
    },
    {
      "bufferView": 2,
      "byteOffset": 165720,
      "componentType": 5126,
      "count": 3481,
      "max": [
        87.77135467529297,
        47.426124572753906,
        74.53008270263672
      ],
      "min": [
        -87.71014404296875,
        -46.129371643066406,
        19.432167053222656
      ],
      "type": "VEC3"
    },
    {
      "bufferView": 2,
      "byteOffset": 207492,
      "componentType": 5126,
      "count": 3481,
      "max": [
        1.0,
        0.9999988079071045,
        0.9999974966049194
      ],
      "min": [
        -1.0,
        -0.9942792057991028,
        -0.9999998807907104
      ],
      "type": "VEC3"
    },
    {
      "bufferView": 1,
      "byteOffset": 55240,
      "componentType": 5126,
      "count": 3481,
      "max": [
        0.9946068525314331,
        0.9955687522888184
      ],
      "min": [
        0.024069951847195625,
        0.0005000000237487257
      ],
      "type": "VEC2"
    },
    {
      "bufferView": 0,
      "byteOffset": 143832,
      "componentType": 5125,
      "count": 18618,
      "type": "SCALAR"
    },
    {
      "bufferView": 2,
      "byteOffset": 249264,
      "componentType": 5126,
      "count": 6886,
      "max": [
        85.3661117553711,
        47.43034362792969,
        20.998979568481445
      ],
      "min": [
        -84.54692840576172,
        -46.03781509399414,
        2.6226043701171875e-06
      ],
      "type": "VEC3"
    },
    {
      "bufferView": 2,
      "byteOffset": 331896,
      "componentType": 5126,
      "count": 6886,
      "max": [
        1.0,
        1.0,
        1.0
      ],
      "min": [
        -1.0,
        -1.0,
        -1.0
      ],
      "type": "VEC3"
    },
    {
      "bufferView": 1,
      "byteOffset": 83088,
      "componentType": 5126,
      "count": 6886,
      "max": [
        0.9976785778999329,
        0.983883798122406
      ],
      "min": [
        0.8820164203643799,
        0.2644835114479065
      ],
      "type": "VEC2"
    },
    {
      "bufferView": 0,
      "byteOffset": 218304,
      "componentType": 5125,
      "count": 33750,
      "type": "SCALAR"
    },
    {
      "bufferView": 2,
      "byteOffset": 414528,
      "componentType": 5126,
      "count": 776,
      "max": [
        85.44869995117188,
        47.5129280090332,
        0.3339815139770508
      ],
      "min": [
        -84.6295166015625,
        -46.12041091918945,
        4.857778549194336e-06
      ],
      "type": "VEC3"
    },
    {
      "bufferView": 2,
      "byteOffset": 423840,
      "componentType": 5126,
      "count": 776,
      "max": [
        0.9991613030433655,
        0.9991611242294312,
        1.0
      ],
      "min": [
        -0.9991623163223267,
        -0.9991632103919983,
        -1.0
      ],
      "type": "VEC3"
    },
    {
      "bufferView": 1,
      "byteOffset": 138176,
      "componentType": 5126,
      "count": 776,
      "max": [
        0.962787389755249,
        0.9217028021812439
      ],
      "min": [
        0.9219290614128113,
        0.8821339011192322
      ],
      "type": "VEC2"
    },
    {
      "bufferView": 0,
      "byteOffset": 353304,
      "componentType": 5125,
      "count": 3600,
      "type": "SCALAR"
    }
  ],
  "asset": {
    "extras": {
      "author": "MADE.COM (https://sketchfab.com/made-it)",
      "license": "CC-BY-NC-4.0 (http://creativecommons.org/licenses/by-nc/4.0/)",
      "source": "https://sketchfab.com/3d-models/hallie-sofa-bed-aegean-blue-with-copper-legs-8d00d7fefb744c12a10a696790195fd4",
      "title": "Hallie Sofa Bed, Aegean Blue with Copper Legs"
    },
    "generator": "Sketchfab-12.68.0",
    "version": "2.0"
  },
  "bufferViews": [
    {
      "buffer": 0,
      "byteLength": 367704,
      "name": "floatBufferViews",
      "target": 34963
    },
    {
      "buffer": 0,
      "byteLength": 144384,
      "byteOffset": 367704,
      "byteStride": 8,
      "name": "floatBufferViews",
      "target": 34962
    },
    {
      "buffer": 0,
      "byteLength": 433152,
      "byteOffset": 512088,
      "byteStride": 12,
      "name": "floatBufferViews",
      "target": 34962
    }
  ],
  "buffers": [
    {
      "byteLength": 945240,
      "uri": "scene.bin"
    }
  ],
  "images": [
    {
      "uri": "textures/FLOOR_baseColor.png"
    },
    {
      "uri": "textures/FABRIC_baseColor.jpeg"
    }
  ],
  "materials": [
    {
      "alphaMode": "BLEND",
      "doubleSided": true,
      "name": "FLOOR",
      "pbrMetallicRoughness": {
        "baseColorFactor": [
          1.0,
          1.0,
          1.0,
          0.6846417683
        ],
        "baseColorTexture": {
          "index": 0
        },
        "metallicFactor": 0.0,
        "roughnessFactor": 0.8929713596
      }
    },
    {
      "doubleSided": true,
      "name": "FABRIC",
      "pbrMetallicRoughness": {
        "baseColorTexture": {
          "index": 1
        },
        "metallicFactor": 0.1778826444,
        "roughnessFactor": 0.7299923779999999
      }
    },
    {
      "doubleSided": true,
      "name": "FABRIC_BLACK",
      "pbrMetallicRoughness": {
        "baseColorTexture": {
          "index": 1
        },
        "metallicFactor": 0.0,
        "roughnessFactor": 0.7056021341000001
      }
    },
    {
      "doubleSided": true,
      "name": "STEEL",
      "pbrMetallicRoughness": {
        "baseColorFactor": [
          0.4987199531,
          0.2136074388,
          0.1516411544,
          1.0
        ],
        "metallicFactor": 0.7753669210949784,
        "roughnessFactor": 0.0
      }
    },
    {
      "doubleSided": true,
      "name": "PLASTIC",
      "pbrMetallicRoughness": {
        "baseColorTexture": {
          "index": 1
        },
        "metallicFactor": 0.0,
        "roughnessFactor": 0.8929713596
      }
    }
  ],
  "meshes": [
    {
      "name": "Plane001_FLOOR_0",
      "primitives": [
        {
          "attributes": {
            "NORMAL": 1,
            "POSITION": 0,
            "TEXCOORD_0": 2
          },
          "indices": 3,
          "material": 0,
          "mode": 4
        }
      ]
    },
    {
      "name": "FABRIC001_FABRIC_0",
      "primitives": [
        {
          "attributes": {
            "NORMAL": 5,
            "POSITION": 4,
            "TEXCOORD_0": 6
          },
          "indices": 7,
          "material": 1,
          "mode": 4
        }
      ]
    },
    {
      "name": "FABRIC_BLACK001_FABRIC_BLACK_0",
      "primitives": [
        {
          "attributes": {
            "NORMAL": 9,
            "POSITION": 8,
            "TEXCOORD_0": 10
          },
          "indices": 11,
          "material": 2,
          "mode": 4
        }
      ]
    },
    {
      "name": "STEEL001_STEEL_0",
      "primitives": [
        {
          "attributes": {
            "NORMAL": 13,
            "POSITION": 12,
            "TEXCOORD_0": 14
          },
          "indices": 15,
          "material": 3,
          "mode": 4
        }
      ]
    },
    {
      "name": "PLASTIC001_PLASTIC_0",
      "primitives": [
        {
          "attributes": {
            "NORMAL": 17,
            "POSITION": 16,
            "TEXCOORD_0": 18
          },
          "indices": 19,
          "material": 4,
          "mode": 4
        }
      ]
    }
  ],
  "nodes": [
    {
      "children": [
        1
      ],
      "matrix": [
        1.0,
        0.0,
        0.0,
        0.0,
        0.0,
        2.220446049250313e-16,
        -1.0,
        0.0,
        0.0,
        1.0,
        2.220446049250313e-16,
        0.0,
        0.0,
        0.0,
        0.0,
        1.0
      ],
      "name": "Sketchfab_model"
    },
    {
      "children": [
        2
      ],
      "matrix": [
        1.0,
        0.0,
        0.0,
        0.0,
        0.0,
        0.0,
        1.0,
        0.0,
        0.0,
        -1.0,
        0.0,
        0.0,
        0.0,
        0.0,
        0.0,
        1.0
      ],
      "name": "1166b0a90dea4e86831eee59013f9fda.fbx"
    },
    {
      "children": [
        3,
        5,
        7,
        9,
        11
      ],
      "name": "RootNode"
    },
    {
      "children": [
        4
      ],
      "matrix": [
        1.0,
        0.0,
        0.0,
        0.0,
        0.0,
        2.220446049250313e-16,
        -1.0,
        0.0,
        0.0,
        1.0,
        2.220446049250313e-16,
        0.0,
        0.0,
        0.0,
        0.0,
        1.0
      ],
      "name": "Plane001"
    },
    {
      "mesh": 0,
      "name": "Plane001_FLOOR_0"
    },
    {
      "children": [
        6
      ],
      "matrix": [
        1.0,
        0.0,
        0.0,
        0.0,
        0.0,
        2.220446049250313e-16,
        -1.0,
        0.0,
        0.0,
        1.0,
        2.220446049250313e-16,
        0.0,
        0.0,
        3.814697265625e-06,
        0.0,
        1.0
      ],
      "name": "FABRIC001"
    },
    {
      "mesh": 1,
      "name": "FABRIC001_FABRIC_0"
    },
    {
      "children": [
        8
      ],
      "matrix": [
        1.0,
        0.0,
        0.0,
        0.0,
        0.0,
        2.220446049250313e-16,
        -1.0,
        0.0,
        0.0,
        1.0,
        2.220446049250313e-16,
        0.0,
        0.0,
        3.814697265625e-06,
        0.0,
        1.0
      ],
      "name": "FABRIC_BLACK001"
    },
    {
      "mesh": 2,
      "name": "FABRIC_BLACK001_FABRIC_BLACK_0"
    },
    {
      "children": [
        10
      ],
      "matrix": [
        1.0,
        0.0,
        0.0,
        0.0,
        0.0,
        2.220446049250313e-16,
        -1.0,
        0.0,
        0.0,
        1.0,
        2.220446049250313e-16,
        0.0,
        0.0,
        3.814697265625e-06,
        0.0,
        1.0
      ],
      "name": "STEEL001"
    },
    {
      "mesh": 3,
      "name": "STEEL001_STEEL_0"
    },
    {
      "children": [
        12
      ],
      "matrix": [
        1.0,
        0.0,
        0.0,
        0.0,
        0.0,
        2.220446049250313e-16,
        -1.0,
        0.0,
        0.0,
        1.0,
        2.220446049250313e-16,
        0.0,
        0.0,
        3.814697265625e-06,
        0.0,
        1.0
      ],
      "name": "PLASTIC001"
    },
    {
      "mesh": 4,
      "name": "PLASTIC001_PLASTIC_0"
    }
  ],
  "samplers": [
    {
      "magFilter": 9729,
      "minFilter": 9987,
      "wrapS": 10497,
      "wrapT": 10497
    }
  ],
  "scene": 0,
  "scenes": [
    {
      "name": "Sketchfab_Scene",
      "nodes": [
        0
      ]
    }
  ],
  "textures": [
    {
      "sampler": 0,
      "source": 0
    },
    {
      "sampler": 0,
      "source": 1
    }
  ]
}
