<svg width="33" height="23" viewBox="0 0 33 23" fill="none" xmlns="http://www.w3.org/2000/svg">
<path d="M26.9157 9.22163C26.5506 9.11713 26.1701 9.32854 26.0657 9.6936C25.9613 10.0587 26.1726 10.4393 26.5376 10.5436C29.6756 11.4411 31.625 12.7428 31.625 13.9408C31.625 14.8175 30.5587 15.7798 28.6995 16.5809C26.6541 17.4623 23.7524 18.1072 20.5258 18.3976L17.7096 18.3595C17.7063 18.3595 17.7032 18.3594 17.7 18.3594C17.3246 18.3594 17.0179 18.6611 17.0128 19.0376C17.0076 19.4173 17.3113 19.7292 17.6909 19.7343L20.5426 19.773C20.5457 19.773 20.5488 19.773 20.5519 19.773C20.5723 19.773 20.5927 19.7721 20.613 19.7704C23.9952 19.4688 27.0603 18.7846 29.2437 17.8437C32.3483 16.5058 33 14.9828 33 13.9408C33 12.0197 30.8392 10.3437 26.9157 9.22163Z" fill="#271A45"/>
<path d="M6.66046 8.43845C6.28082 8.43845 5.97296 8.74624 5.97296 9.12595C5.97296 9.50565 6.28082 9.81345 6.66046 9.81345H9.48753V12.6551H6.66046C6.28082 12.6551 5.97296 12.9629 5.97296 13.3426C5.97296 13.7223 6.28082 14.0301 6.66046 14.0301H10.175C10.5547 14.0301 10.8625 13.7223 10.8625 13.3426V4.9093C10.8625 4.5296 10.5547 4.2218 10.175 4.2218H6.66046C6.28082 4.2218 5.97296 4.5296 5.97296 4.9093C5.97296 5.28901 6.28082 5.5968 6.66046 5.5968H9.48753V8.43845H6.66046Z" fill="#271A45"/>
<path d="M12.9854 14.0302H17.2022C17.5818 14.0302 17.8897 13.7224 17.8897 13.3427V9.12601C17.8897 8.74631 17.5819 8.43851 17.2022 8.43851H13.6729V5.5968H16.5C16.8797 5.5968 17.1875 5.28901 17.1875 4.9093C17.1875 4.5296 16.8797 4.2218 16.5 4.2218H12.9854C12.6057 4.2218 12.2979 4.5296 12.2979 4.9093V13.3427C12.2979 13.7224 12.6057 14.0302 12.9854 14.0302ZM13.6729 9.81344H16.5147V12.6551H13.6729V9.81344Z" fill="#271A45"/>
<path d="M20.0146 14.0302H24.2313C24.6109 14.0302 24.9188 13.7224 24.9188 13.3427V4.9093C24.9188 4.5296 24.6109 4.2218 24.2313 4.2218H20.0146C19.6349 4.2218 19.3271 4.5296 19.3271 4.9093V13.3427C19.3271 13.7224 19.6349 14.0302 20.0146 14.0302ZM20.7021 5.5968H23.5438V12.6552H20.7021V5.5968Z" fill="#271A45"/>
<path d="M12.5714 15.74C12.3262 15.4501 11.8924 15.4139 11.6025 15.6591C11.3126 15.9044 11.2764 16.3381 11.5216 16.628L13.0593 18.4458C9.81454 18.1983 6.87583 17.6036 4.71508 16.7511C2.59242 15.9134 1.375 14.8892 1.375 13.9408C1.375 12.8395 3.00685 11.6528 5.74014 10.7662C6.10136 10.649 6.29915 10.2613 6.182 9.90007C6.06492 9.53893 5.67703 9.34113 5.31596 9.45822C3.72584 9.97398 2.46489 10.5876 1.56805 11.2819C0.527588 12.0876 0 12.9821 0 13.9408C0 15.5292 1.45599 16.9432 4.21039 18.03C6.44916 18.9134 9.45099 19.5335 12.7509 19.8009L11.3798 21.3205C11.1254 21.6024 11.1477 22.0372 11.4296 22.2915C11.5611 22.4102 11.7258 22.4686 11.89 22.4686C12.0777 22.4686 12.2649 22.3921 12.4006 22.2417L14.9022 19.4693C15.0162 19.343 15.0793 19.1789 15.0793 19.0088V18.9562C15.0793 18.7936 15.0217 18.6363 14.9167 18.5122L12.5714 15.74Z" fill="#271A45"/>
<path d="M26.2222 4.18646H29.0327C29.4123 4.18646 29.7202 3.87867 29.7202 3.49896V0.6875C29.7202 0.307794 29.4123 0 29.0327 0H26.2222C25.8426 0 25.5347 0.307794 25.5347 0.6875V3.49896C25.5347 3.87867 25.8426 4.18646 26.2222 4.18646ZM26.9097 1.375H28.3452V2.81146H26.9097V1.375Z" fill="#271A45"/>
</svg>
